<svg version="1.1" baseProfile="tiny" id="Layer_1" x="0px" y="0px" width="400px" height="400px" viewBox="0 0 40.1 40.1" xml:space="preserve" xmlns="http://www.w3.org/2000/svg" xmlns:xlink="http://www.w3.org/1999/xlink">
  <g>
    <path fill="#EFAB00" d="M28.2,30.2c0,0-3.7-15.8-13.9-16c-10-0.2-12.3,16-8.4,16H28.2z"/>
    <path fill="#59C059" d="M35.6,23.7c0,0,3.2-2.9-1.2-4.4c-2.7-0.9-2.8-5.4-4.9-6.2c-2.4-1-3.6,1-5.7,0.2c-2.3-0.8-3-3.8-6.1-3.4&#xA;&#x9;c-2,0.2-2.1,3.4-6.1,3.5C6.6,13.6,9,17.3,8,19.6s-4.4,2.4-3.5,6.6c0.6,2.5,2.2,4.1,7.1,3.4C15.3,29.1,35.6,23.7,35.6,23.7z"/>
    <path fill="#C18500" d="M11.4,23.6c0,0-0.7-1.8-1.3-1.2c-0.6,0.7-1.8-0.4-2.5-0.6c-0.7-0.2-1.3,1-1.8,1.2c-0.5,0.1-1.8,0.4-2.2,1.8&#xA;&#x9;c-0.2,0.9,0.6,1.9,0.1,2.7c-0.9,1.5,0.9,2.9,2.3,2.8c0.7,0,0.4,0,1.8,0c0.7,0,3,0,3,0L11.4,23.6z"/>
    <path fill="#E8511C" d="M9.2,22.4l2.4,0.7c0.4,0.1,0.9-0.1,1.1-0.6l0.3-0.9c0.1-0.4-0.1-0.9-0.6-1.1L10,19.9C9.5,19.8,9,20,8.9,20.5&#xA;&#x9;l-0.3,0.9C8.5,21.8,8.8,22.3,9.2,22.4z"/>
    <path fill="#E8511C" d="M11,17.5l1.2-0.6c0.4-0.2,0.6-0.7,0.4-1.1l-0.1-0.2c-0.2-0.4-0.7-0.6-1.1-0.4l-1.2,0.6&#xA;&#x9;c-0.4,0.2-0.6,0.7-0.4,1.1l0.1,0.2C10.1,17.5,10.6,17.7,11,17.5z"/>
    <path fill="#E8511C" d="M22.8,14.6l1.7-0.6c0.4-0.2,0.7-0.6,0.5-1.1l-0.2-0.4c-0.2-0.4-0.6-0.7-1.1-0.5L22,12.6&#xA;&#x9;c-0.4,0.2-0.7,0.6-0.5,1.1l0.2,0.4C21.8,14.6,22.3,14.8,22.8,14.6z"/>
    <path fill="#E8511C" d="M32.7,20.4l0.9,1.5c0.2,0.4,0.7,0.5,1.2,0.3l0.4-0.2c0.4-0.2,0.5-0.7,0.3-1.2l-0.9-1.5&#xA;&#x9;c-0.2-0.4-0.7-0.5-1.2-0.3L33,19.3C32.6,19.5,32.5,20,32.7,20.4z"/>
    <path fill="#FFBF00" d="M34.3,30.2c1.3,0,2.3-1.2,2.2-2.5c-0.6-5-3.4-14.7-14.7-13.8C7.5,15.1,10.4,30.2,6.6,30.2L34.3,30.2z"/>
    <line fill="none" stroke="#FFBF00" stroke-width="0.8616" stroke-linecap="round" stroke-linejoin="round" stroke-miterlimit="10" x1="19.2" y1="11.3" x2="16.9" y2="13.1"/>
    <line fill="none" stroke="#FFBF00" stroke-width="0.8616" stroke-linecap="round" stroke-linejoin="round" stroke-miterlimit="10" x1="31.6" y1="14.5" x2="28.7" y2="13.9"/>
    <line fill="none" stroke="#FFBF00" stroke-width="0.8616" stroke-linecap="round" stroke-linejoin="round" stroke-miterlimit="10" x1="4.8" y1="21.5" x2="7.1" y2="23.3"/>
    <g>
      <path fill="#EFAB00" d="M31.4,22.5c-0.7,0-0.7-1.1,0-1.1C32.1,21.4,32.1,22.5,31.4,22.5L31.4,22.5z"/>
    </g>
    <g>
      <path fill="#EFAB00" d="M25.8,23.5c-0.7,0-0.7-1.1,0-1.1C26.5,22.4,26.5,23.5,25.8,23.5L25.8,23.5z"/>
    </g>
    <g>
      <path fill="#EFAB00" d="M25.1,28c-0.7,0-0.7-1.1,0-1.1C25.8,26.9,25.8,28,25.1,28L25.1,28z"/>
    </g>
    <g>
      <path fill="#EFAB00" d="M15.9,28.5c-0.7,0-0.7-1.1,0-1.1C16.6,27.4,16.6,28.5,15.9,28.5L15.9,28.5z"/>
    </g>
    <g>
      <path fill="#EFAB00" d="M16.2,20c-0.7,0-0.7-1.1,0-1.1C16.9,18.9,16.9,20,16.2,20L16.2,20z"/>
    </g>
    <g>
      <path fill="#EFAB00" d="M21,18.2c-0.7,0-0.7-1.1,0-1.1C21.7,17.1,21.7,18.2,21,18.2L21,18.2z"/>
    </g>
    <g>
      <path fill="#EFAB00" d="M19.9,24.2c-0.7,0-0.7-1.1,0-1.1C20.6,23.1,20.6,24.2,19.9,24.2L19.9,24.2z"/>
    </g>
    <g>
      <path fill="#EFAB00" d="M13.9,24.6c-0.7,0-0.7-1.1,0-1.1C14.6,23.5,14.6,24.6,13.9,24.6L13.9,24.6z"/>
    </g>
    <g>
      <path fill="#EFAB00" d="M32.5,26.9c-0.7,0-0.7-1.1,0-1.1C33.2,25.9,33.2,26.9,32.5,26.9L32.5,26.9z"/>
    </g>
    <g>
      <path fill="#EFAB00" d="M26.7,18.8c-0.7,0-0.7-1.1,0-1.1C27.4,17.7,27.4,18.8,26.7,18.8L26.7,18.8z"/>
    </g>
  </g>
</svg>